<svg width="199" height="199" viewBox="0 0 199 199" fill="none" xmlns="http://www.w3.org/2000/svg">
<mask id="mask0" mask-type="alpha" maskUnits="userSpaceOnUse" x="0" y="0" width="199" height="199">
<rect width="199" height="199" fill="#C4C4C4"/>
</mask>
<g mask="url(#mask0)">
<mask id="mask1" mask-type="alpha" maskUnits="userSpaceOnUse" x="12" y="52" width="180" height="124">
<path d="M134.209 70.2328C135.988 71.6209 137.981 72.6997 140.118 73.4189C145.227 75.1378 155.195 78.3671 165.163 80.8196C179.432 84.3294 213.416 109.933 168.728 147.591C124.041 185.249 50.5071 183.171 25.0765 147.095C-0.354063 111.019 12.2147 81.9416 54.9158 59.4877C91.3575 40.335 125.098 63.1341 134.209 70.2328Z" fill="#FFD8C8"/>
</mask>
<g mask="url(#mask1)">
<rect x="-5" y="40.001" width="229" height="135" fill="#FFD8C8"/>
<path d="M-14.8772 117.238C3.92239 119.155 2.79991 126.716 14.8341 124.165C26.8759 121.614 28.3115 127.479 36.9782 130.229C45.645 132.978 53.3267 121.163 64.1544 115.932C74.9822 110.7 91.4986 115.054 99.4018 112.083C107.305 109.112 110.436 117.604 117.873 119.201C125.31 120.797 131.19 114 136.68 104.904C142.171 95.8153 148.081 86.3451 156.358 86.8034C164.635 87.2616 169.568 90.3623 174.539 90.4082C177.12 90.4311 180.526 87.6817 184.305 85.001C197.981 100.123 206.824 120.278 208.916 140.264C208.947 140.524 208.977 140.784 209.008 141.043L60.9321 139.6L0.845121 139.012C0.700039 138.744 0.539684 138.492 0.394602 138.225C-4.46947 129.656 -10.0131 123.745 -15.4957 118.513C-15.9997 118.032 -16.496 117.559 -17 117.085C-16.3204 117.116 -15.6179 117.161 -14.8772 117.238Z" fill="#333333"/>
<path d="M62.1081 132.436L195.462 133.521C196.607 143.434 195.064 153.255 190.361 161.855C188.612 165.055 186.444 168.087 183.786 170.882C162.261 193.618 122.844 196.444 92.3921 192.381C49.8906 186.707 25.4939 163.772 10.558 136.263C9.73335 134.75 8.87813 133.33 8 132.001L62.1081 132.436Z" fill="#989898"/>
</g>
<g clip-path="url(#clip0)">
<path d="M9.45231 93.9147C17.437 93.1768 19.2083 96.5423 19.2083 96.5423C19.2083 96.5423 19.7806 95.6064 24.2407 96.5963C28.7009 97.5861 28.1104 100.421 28.1104 100.421C28.1104 100.421 35.9316 101.132 35.3411 103.489C34.896 105.28 9.98825 105.451 -3.80094 104.164C-4.19154 102.598 -4.55489 100.952 -4.86374 99.1969C-4.91825 98.9359 -4.95458 98.6659 -5 98.405C-2.71997 98.162 -0.585278 98.063 0.459358 98.072C0.459358 98.072 3.2935 94.4816 9.45231 93.9147Z" fill="white"/>
<path d="M32.7339 73.6858C27.6742 70.6713 42.5898 69.7354 46.0507 69.7714C46.0507 69.7714 48.9666 66.5859 55.3253 66.091C63.5733 65.4521 65.3992 68.4306 65.3992 68.4306C65.3992 68.4306 65.9896 67.5937 70.5951 68.4846C75.2006 69.3755 74.6011 71.8861 74.6011 71.8861C74.6011 71.8861 82.6765 72.534 82.077 74.6216C81.4775 76.7093 37.0396 76.2504 32.7339 73.6858Z" fill="white"/>
<path d="M116.645 83.7717C113.502 81.9 122.758 81.3151 124.911 81.3421C124.911 81.3421 126.728 79.3624 130.67 79.0564C135.793 78.6605 136.929 80.5142 136.929 80.5142C136.929 80.5142 137.292 80.0013 140.154 80.5502C143.015 81.0991 142.643 82.6559 142.643 82.6559C142.643 82.6559 147.657 83.0518 147.284 84.3566C146.903 85.6524 119.315 85.3555 116.645 83.7717Z" fill="white"/>
</g>
<g clip-path="url(#clip1)">
<path d="M43 98.6527L89.15 168.001L149 125.994L113.756 93.2558L90.3409 59.001L43 98.6527Z" fill="white"/>
<path d="M93.0631 155.485C97.9638 155.485 101.937 151.528 101.937 146.645C101.937 141.763 97.9638 137.805 93.0631 137.805C88.1623 137.805 84.1895 141.763 84.1895 146.645C84.1895 151.528 88.1623 155.485 93.0631 155.485Z" fill="#00A0E3"/>
<path d="M88.729 151.418L92.8479 149.437L97.1191 151.418L92.6957 141.23L88.729 151.418Z" fill="white"/>
<path d="M50.1636 99.072L88.2727 67.1543L109.593 95.5752L69.1823 127.225L50.1636 99.072Z" fill="#E9E9E9"/>
<path d="M52.9481 101.061C52.8586 101.061 52.7691 101.052 52.6885 101.035C51.1752 100.731 50.2081 100.588 50.1902 100.588C49.4739 100.481 48.9814 99.8213 49.0799 99.1077C49.1874 98.394 49.841 97.9213 50.5663 98.0015C50.5663 98.0015 51.5871 98.1532 53.2078 98.4743C53.9152 98.6171 54.3719 99.3039 54.2286 100.018C54.1032 100.633 53.557 101.061 52.9481 101.061Z" fill="#00A0E3"/>
<path d="M104.068 128.046C103.298 128.046 102.546 128.028 101.811 127.992C101.086 127.957 100.531 127.35 100.567 126.628C100.594 125.905 101.22 125.272 101.937 125.388C102.626 125.414 103.343 125.432 104.068 125.432L104.892 125.423C105.635 125.414 106.351 125.388 107.05 125.361C107.775 125.298 108.384 125.887 108.42 126.61C108.455 127.332 107.891 127.939 107.166 127.975C106.45 128.001 105.706 128.028 104.936 128.037L104.068 128.046ZM112.333 127.564C111.679 127.564 111.115 127.074 111.034 126.413C110.945 125.7 111.464 125.049 112.18 124.968C113.953 124.763 115.655 124.487 117.231 124.148C117.911 124.014 118.636 124.442 118.78 125.156C118.932 125.86 118.475 126.556 117.768 126.699C116.111 127.047 114.338 127.332 112.476 127.555C112.431 127.555 112.377 127.564 112.333 127.564ZM96.6806 127.421C96.6 127.421 96.5194 127.413 96.4389 127.404C94.6122 127.065 92.8393 126.592 91.1827 125.985C90.5022 125.735 90.153 124.986 90.4037 124.308C90.6544 123.63 91.4155 123.291 92.0871 123.532C93.6093 124.094 95.239 124.522 96.9224 124.835C97.6298 124.968 98.1043 125.646 97.97 126.36C97.8447 126.975 97.2985 127.421 96.6806 127.421ZM86.9026 123.844C86.6788 123.844 86.4549 123.791 86.249 123.666C84.7536 122.81 83.2851 121.81 81.7718 120.615C81.2077 120.169 81.1092 119.348 81.5569 118.777C82.0047 118.215 82.8374 118.126 83.4015 118.563C84.8163 119.678 86.1684 120.606 87.5563 121.4C88.1831 121.766 88.398 122.56 88.0308 123.184C87.7891 123.603 87.3503 123.844 86.9026 123.844ZM78.6647 117.448C78.3334 117.448 78.0111 117.323 77.7514 117.083C76.5247 115.905 75.3069 114.629 74.0533 113.265C73.5698 112.729 73.6056 111.909 74.1429 111.418C74.6801 110.936 75.5128 110.972 75.9964 111.507C77.2052 112.827 78.3872 114.059 79.5691 115.2C80.0885 115.7 80.1064 116.529 79.596 117.047C79.3453 117.314 79.005 117.448 78.6647 117.448ZM71.573 109.759C71.2059 109.759 70.8387 109.607 70.5791 109.304L70.1135 108.76C69.3434 107.85 68.2778 106.967 66.9616 106.128C66.3527 105.745 66.1646 104.933 66.5586 104.326C66.9526 103.72 67.7585 103.541 68.3674 103.925C69.9165 104.906 71.179 105.968 72.1192 107.074L72.5669 107.6C73.0415 108.144 72.9699 108.974 72.4236 109.438C72.1819 109.661 71.8774 109.759 71.573 109.759ZM62.9859 103.996C62.8158 103.996 62.6546 103.969 62.4934 103.898C61.0249 103.3 59.4042 102.747 57.6671 102.248C56.9776 102.051 56.5747 101.329 56.7717 100.633C56.9776 99.9373 57.685 99.5359 58.3924 99.741C60.2191 100.267 61.9293 100.847 63.4784 101.481C64.15 101.757 64.4723 102.515 64.1947 103.184C63.9977 103.684 63.5052 103.996 62.9859 103.996Z" fill="#00A0E3"/>
<path d="M122.639 125.325C122.102 125.325 121.591 124.995 121.403 124.451C121.161 123.773 121.52 123.024 122.2 122.783C123.678 122.265 124.412 121.873 124.421 121.873C125.056 121.525 125.844 121.766 126.194 122.399C126.534 123.033 126.301 123.818 125.665 124.165C125.63 124.183 124.761 124.647 123.069 125.245C122.925 125.298 122.782 125.325 122.639 125.325Z" fill="#00A0E3"/>
<path d="M131.584 121.864C131.584 121.864 110.649 90.883 130.59 90.883C149.815 90.883 131.584 121.864 131.584 121.864Z" fill="#EA5B21"/>
<path d="M130.348 105.504C133.029 105.504 135.201 103.339 135.201 100.669C135.201 97.9985 133.029 95.8339 130.348 95.8339C127.668 95.8339 125.495 97.9985 125.495 100.669C125.495 103.339 127.668 105.504 130.348 105.504Z" fill="white"/>
<path d="M102.841 104.924L74.2143 76.3336C73.7039 75.8251 72.8712 75.8251 72.3608 76.3336C71.8504 76.842 71.8504 77.6627 72.3608 78.1801L79.6316 85.4414L68.1523 97.2433L56.2343 91.2665C55.5896 90.9454 54.8016 91.1952 54.4792 91.8464C54.1569 92.4887 54.4165 93.2737 55.0613 93.5948L82.094 107.145L91.5228 113.702C91.7467 113.862 92.0153 113.934 92.275 113.934C92.6869 113.934 93.0898 113.737 93.3495 113.372C93.7614 112.783 93.6181 111.971 93.0271 111.552L84.0013 105.299L88.5052 94.2906L101.005 106.77C101.265 107.029 101.596 107.154 101.928 107.154C102.259 107.154 102.599 107.029 102.85 106.77C103.351 106.262 103.351 105.432 102.841 104.924ZM81.6821 104.023L70.6058 98.4654L81.4851 87.288L86.4816 92.2746L81.6821 104.023Z" fill="white"/>
</g>
<path fill-rule="evenodd" clip-rule="evenodd" d="M172.631 79.4035C177.398 81.1384 182.668 78.6807 184.403 73.9139C186.138 69.1471 183.681 63.8764 178.914 62.1414C174.147 60.4065 168.876 62.8642 167.141 67.631C165.406 72.3978 167.864 77.6685 172.631 79.4035Z" stroke="#989898" stroke-width="4.0095" stroke-dasharray="8.02 4.41"/>
<path fill-rule="evenodd" clip-rule="evenodd" d="M174.724 72.0615L174.493 72.6962L175.882 73.202L176.042 72.7635C176.095 72.6173 176.152 72.4965 176.213 72.4011C176.274 72.3057 176.344 72.2267 176.424 72.1642C176.504 72.1017 176.596 72.046 176.701 71.9972C176.806 71.9483 176.931 71.8936 177.076 71.8329C177.304 71.7332 177.521 71.6376 177.724 71.5462C177.928 71.4548 178.117 71.3494 178.292 71.23C178.467 71.1106 178.624 70.9674 178.763 70.8003C178.903 70.6333 179.019 70.4228 179.111 70.169C179.243 69.8074 179.298 69.4637 179.276 69.1379C179.255 68.8121 179.169 68.515 179.017 68.2464C178.866 67.9778 178.66 67.7394 178.399 67.5312C178.138 67.323 177.834 67.1557 177.486 67.0292C177.116 66.8944 176.757 66.8227 176.411 66.8141C176.064 66.8056 175.737 66.8585 175.428 66.9728C175.12 67.0871 174.84 67.2618 174.588 67.4969C174.337 67.7321 174.12 68.0258 173.94 68.3782L175.38 69.0332C175.526 68.729 175.743 68.5052 176.031 68.3618C176.319 68.2184 176.625 68.2057 176.95 68.3237C177.251 68.4333 177.465 68.6182 177.594 68.8784C177.722 69.1385 177.732 69.4186 177.622 69.7186C177.51 70.0264 177.323 70.2413 177.06 70.3634L175.84 70.9389C175.68 71.0199 175.543 71.0898 175.43 71.1488C175.316 71.2078 175.217 71.2762 175.132 71.3541C175.047 71.432 174.973 71.5271 174.91 71.6393C174.847 71.7515 174.785 71.8923 174.724 72.0615ZM174.181 73.6803C173.935 73.7913 173.767 73.9698 173.677 74.216C173.633 74.3391 173.616 74.4636 173.627 74.5896C173.638 74.7156 173.672 74.8325 173.729 74.9403C173.786 75.0482 173.862 75.1455 173.957 75.2324C174.052 75.3194 174.161 75.3853 174.285 75.4302C174.54 75.523 174.79 75.5139 175.036 75.403C175.282 75.2921 175.449 75.1135 175.539 74.8673C175.628 74.6211 175.611 74.3797 175.488 74.143C175.364 73.9063 175.179 73.743 174.932 73.6531C174.677 73.5603 174.426 73.5694 174.181 73.6803Z" fill="#989898"/>
<path fill-rule="evenodd" clip-rule="evenodd" d="M33.6629 82.3175C43.7829 78.6341 49.0009 67.4441 45.3175 57.324C41.6341 47.2039 30.4441 41.986 20.324 45.6694C10.204 49.3528 4.986 60.5428 8.66941 70.6628C12.3528 80.7829 23.5428 86.0009 33.6629 82.3175Z" stroke="#989898" stroke-width="4.0095" stroke-dasharray="8.02 4.41"/>
<path fill-rule="evenodd" clip-rule="evenodd" d="M27.0477 67.5203L27.5381 68.8678L30.4885 67.7939L30.1497 66.8629C30.0367 66.5526 29.9647 66.2782 29.9336 66.0398C29.9025 65.8014 29.909 65.5771 29.9532 65.3668C29.9973 65.1565 30.0716 64.9399 30.176 64.7169C30.2805 64.4939 30.4088 64.2344 30.561 63.9386C30.7968 63.4643 31.018 63.0139 31.2247 62.5872C31.4313 62.1605 31.5952 61.731 31.7162 61.2985C31.8372 60.866 31.8972 60.4187 31.8961 59.9567C31.895 59.4947 31.7963 58.9941 31.6002 58.4551C31.3207 57.6875 30.9414 57.0533 30.4622 56.5525C29.9829 56.0518 29.4369 55.6864 28.8241 55.4562C28.2113 55.2261 27.5508 55.1197 26.8424 55.1371C26.1341 55.1544 25.4111 55.2973 24.6735 55.5658C23.8867 55.8521 23.2057 56.2249 22.6303 56.684C22.0549 57.1432 21.5945 57.676 21.2491 58.2827C20.9038 58.8893 20.6869 59.5555 20.5984 60.2814C20.5099 61.0073 20.5591 61.7801 20.7461 62.5999L23.9824 61.6995C23.8042 61.0059 23.8517 60.3459 24.1248 59.7193C24.3979 59.0927 24.8787 58.6541 25.5671 58.4036C26.2064 58.1709 26.8078 58.1786 27.3715 58.4266C27.9351 58.6747 28.3328 59.1172 28.5647 59.7542C28.8025 60.4075 28.7908 61.0129 28.5296 61.5704L27.332 64.1705C27.1813 64.5213 27.054 64.822 26.9503 65.0724C26.8465 65.3229 26.7786 65.5696 26.7463 65.8126C26.7141 66.0555 26.7236 66.311 26.7747 66.5791C26.8259 66.8472 26.9169 67.1609 27.0477 67.5203ZM28.3734 70.8945C28.1249 71.4103 28.0958 71.9296 28.286 72.4523C28.3812 72.7136 28.5236 72.9392 28.7134 73.1291C28.9031 73.319 29.1179 73.4628 29.3577 73.5605C29.5974 73.6582 29.854 73.7128 30.1273 73.7243C30.4006 73.7358 30.6684 73.6938 30.9307 73.5984C31.4716 73.4015 31.8663 73.0452 32.1147 72.5293C32.3632 72.0134 32.3923 71.4941 32.2021 70.9715C32.0118 70.4488 31.6546 70.0794 31.1304 69.8632C30.6063 69.6471 30.0819 69.6344 29.5574 69.8254C29.0165 70.0222 28.6218 70.3786 28.3734 70.8945Z" fill="#989898"/>
<path opacity="0.5" d="M111.27 51.6613C111.165 51.6613 110.868 51.6168 110.345 51.3633C109.843 51.1196 109.24 50.7351 108.559 50.2019L106.087 53.359C106.918 54.0094 107.764 54.5677 108.595 54.9708C109.406 55.3642 110.326 55.6708 111.27 55.6708V51.6613ZM105.298 47.0631C103.53 45.0661 101.809 42.6462 100.479 40.1675L96.9457 42.0628C98.4315 44.8325 100.335 47.5059 102.295 49.7205L105.298 47.0631ZM98.6779 36.0186C98.2327 34.6319 98.0048 33.3659 98.0048 32.2698H93.9952C93.9952 33.8946 94.3277 35.5853 94.8603 37.2442L98.6779 36.0186ZM98.0048 32.2698C98.0048 31.1181 98.151 30.0036 98.425 28.9424L94.5428 27.9401C94.185 29.3259 93.9952 30.7771 93.9952 32.2698H98.0048ZM99.8353 25.541C100.979 23.6023 102.602 21.9789 104.541 20.8353L102.504 17.3819C99.9808 18.8702 97.8702 20.9808 96.3819 23.5037L99.8353 25.541ZM107.942 19.425C109.004 19.151 110.118 19.0048 111.27 19.0048V14.9952C109.777 14.9952 108.326 15.185 106.94 15.5428L107.942 19.425ZM111.27 19.0048C112.421 19.0048 113.536 19.151 114.597 19.425L115.599 15.5428C114.214 15.185 112.762 14.9952 111.27 14.9952V19.0048ZM117.999 20.8353C119.937 21.9789 121.561 23.6023 122.704 25.541L126.158 23.5037C124.669 20.9808 122.559 18.8702 120.036 17.3819L117.999 20.8353ZM124.115 28.9424C124.389 30.0036 124.535 31.1181 124.535 32.2698H128.544C128.544 30.7771 128.355 29.3259 127.997 27.9401L124.115 28.9424ZM124.535 32.2698C124.535 33.3659 124.307 34.6319 123.862 36.0186L127.679 37.2442C128.212 35.5853 128.544 33.8946 128.544 32.2698H124.535ZM122.061 40.1675C120.731 42.6462 119.009 45.0661 117.242 47.0631L120.244 49.7205C122.204 47.5059 124.108 44.8325 125.594 42.0628L122.061 40.1675ZM113.981 50.2019C113.3 50.7351 112.697 51.1196 112.194 51.3633C111.672 51.6168 111.375 51.6613 111.27 51.6613V55.6708C112.213 55.6708 113.133 55.3642 113.944 54.9708C114.775 54.5677 115.622 54.0094 116.453 53.359L113.981 50.2019ZM111.548 34.4886C110.958 34.4886 110.409 34.3368 109.932 34.0716L107.983 37.5755C109.041 38.1638 110.258 38.4981 111.548 38.4981V34.4886ZM108.633 32.7721C108.367 32.2953 108.216 31.7463 108.216 31.1559H104.206C104.206 32.4457 104.54 33.6635 105.129 34.7211L108.633 32.7721ZM108.216 31.1559C108.216 30.5654 108.367 30.0165 108.633 29.5396L105.129 27.5907C104.54 28.6483 104.206 29.866 104.206 31.1559H108.216ZM109.932 28.2402C110.409 27.975 110.958 27.8232 111.548 27.8232V23.8137C110.258 23.8137 109.041 24.148 107.983 24.7362L109.932 28.2402ZM111.548 27.8232C112.139 27.8232 112.688 27.975 113.164 28.2402L115.113 24.7362C114.056 24.148 112.838 23.8137 111.548 23.8137V27.8232ZM114.464 29.5396C114.729 30.0165 114.881 30.5654 114.881 31.1559H118.89C118.89 29.866 118.556 28.6483 117.968 27.5907L114.464 29.5396ZM114.881 31.1559C114.881 31.7463 114.729 32.2953 114.464 32.7721L117.968 34.7211C118.556 33.6635 118.89 32.4457 118.89 31.1559H114.881ZM113.164 34.0716C112.688 34.3368 112.139 34.4886 111.548 34.4886V38.4981C112.838 38.4981 114.056 38.1638 115.113 37.5755L113.164 34.0716Z" fill="#EA5B21"/>
</g>
<defs>
<clipPath id="clip0">
<rect width="174" height="39" fill="white" transform="translate(-5 66.001)"/>
</clipPath>
<clipPath id="clip1">
<rect width="106" height="109" fill="white" transform="translate(43 59.001)"/>
</clipPath>
</defs>
</svg>
